<svg width="65" height="65" viewBox="0 0 65 65" fill="none" xmlns="http://www.w3.org/2000/svg">
<path d="M32.5 5.41675C47.4581 5.41675 59.5834 17.542 59.5834 32.5001C59.5834 47.4582 47.4581 59.5834 32.5 59.5834C17.5419 59.5834 5.41669 47.4582 5.41669 32.5001C5.41669 17.542 17.5419 5.41675 32.5 5.41675ZM32.5 8.80217C19.412 8.80217 8.8021 19.4121 8.8021 32.5001C8.8021 45.5881 19.412 56.198 32.5 56.198C45.588 56.198 56.1979 45.5881 56.1979 32.5001C56.1979 19.4121 45.588 8.80217 32.5 8.80217ZM32.8386 43.3334C33.3773 43.3334 33.8939 43.5474 34.2749 43.9284C34.6558 44.3093 34.8698 44.8259 34.8698 45.3647C34.8698 45.9034 34.6558 46.42 34.2749 46.801C33.8939 47.1819 33.3773 47.3959 32.8386 47.3959C32.2998 47.3959 31.7832 47.1819 31.4023 46.801C31.0213 46.42 30.8073 45.9034 30.8073 45.3647C30.8073 44.8259 31.0213 44.3093 31.4023 43.9284C31.7832 43.5474 32.2998 43.3334 32.8386 43.3334ZM32.8386 17.6042C37.3953 17.6042 41.3021 21.507 41.3021 26.0664C41.3048 28.9373 40.2608 30.7654 37.6756 33.5523L36.3012 35.0243C34.9159 36.5666 34.3674 37.5444 34.316 38.7008L34.3119 38.9202L34.3038 39.0935L34.2794 39.2614C34.1977 39.6725 33.9664 40.0387 33.6303 40.2891C33.2942 40.5394 32.8771 40.6562 32.4599 40.6168C32.0426 40.5773 31.6548 40.3845 31.3715 40.0756C31.0883 39.7667 30.9297 39.3637 30.9265 38.9446C30.9089 36.522 31.8433 34.8658 34.0519 32.4649L35.4426 30.978C37.2816 28.9576 37.918 27.7646 37.9167 26.0678C37.9167 23.3771 35.5266 20.9897 32.8386 20.9897C30.2386 20.9897 27.9148 23.2295 27.7686 25.8091L27.7523 26.2411C27.7098 26.6743 27.502 27.0745 27.1721 27.3585C26.8422 27.6424 26.4157 27.7885 25.981 27.7661C25.5462 27.7438 25.1368 27.5549 24.8378 27.2387C24.5387 26.9224 24.373 26.5031 24.375 26.0678C24.375 21.511 28.2831 17.6042 32.8386 17.6042Z" fill="#F8F8F8" fill-opacity="0.5"/>
</svg>
