<svg width="157" height="29" viewBox="0 0 157 29" fill="none" xmlns="http://www.w3.org/2000/svg">
<path d="M5.27016 7.04V12.22H14.3422V15.86H5.27016V23H0.734156V3.4H15.5462V7.04H5.27016ZM27.8056 23.336C25.8082 23.336 23.9976 22.9067 22.3736 22.048C20.7682 21.1707 19.4989 19.9667 18.5656 18.436C17.6509 16.8867 17.1936 15.1413 17.1936 13.2C17.1936 11.2587 17.6509 9.52267 18.5656 7.992C19.4989 6.44267 20.7682 5.23867 22.3736 4.38C23.9976 3.50267 25.8176 3.064 27.8336 3.064C29.5322 3.064 31.0629 3.36267 32.4256 3.96C33.8069 4.55733 34.9642 5.416 35.8976 6.536L32.9856 9.224C31.6602 7.69333 30.0176 6.928 28.0576 6.928C26.8442 6.928 25.7616 7.19867 24.8096 7.74C23.8576 8.26267 23.1109 9 22.5696 9.952C22.0469 10.904 21.7856 11.9867 21.7856 13.2C21.7856 14.4133 22.0469 15.496 22.5696 16.448C23.1109 17.4 23.8576 18.1467 24.8096 18.688C25.7616 19.2107 26.8442 19.472 28.0576 19.472C30.0176 19.472 31.6602 18.6973 32.9856 17.148L35.8976 19.836C34.9642 20.9747 33.8069 21.8427 32.4256 22.44C31.0442 23.0373 29.5042 23.336 27.8056 23.336ZM47.5567 7.712C48.9567 7.712 50.2261 8.03867 51.3647 8.692C52.5221 9.32667 53.4274 10.232 54.0807 11.408C54.7341 12.5653 55.0607 13.9187 55.0607 15.468C55.0607 17.0173 54.7341 18.38 54.0807 19.556C53.4274 20.7133 52.5221 21.6187 51.3647 22.272C50.2261 22.9067 48.9567 23.224 47.5567 23.224C45.4847 23.224 43.9074 22.5707 42.8247 21.264V23H38.6527V2.224H43.0207V9.532C44.1221 8.31867 45.6341 7.712 47.5567 7.712ZM46.8007 19.64C47.9207 19.64 48.8354 19.2667 49.5447 18.52C50.2727 17.7547 50.6367 16.7373 50.6367 15.468C50.6367 14.1987 50.2727 13.1907 49.5447 12.444C48.8354 11.6787 47.9207 11.296 46.8007 11.296C45.6807 11.296 44.7567 11.6787 44.0287 12.444C43.3194 13.1907 42.9647 14.1987 42.9647 15.468C42.9647 16.7373 43.3194 17.7547 44.0287 18.52C44.7567 19.2667 45.6807 19.64 46.8007 19.64ZM65.1528 23.224C63.5661 23.224 62.1381 22.8973 60.8688 22.244C59.6181 21.572 58.6381 20.648 57.9288 19.472C57.2194 18.296 56.8648 16.9613 56.8648 15.468C56.8648 13.9747 57.2194 12.64 57.9288 11.464C58.6381 10.288 59.6181 9.37333 60.8688 8.72C62.1381 8.048 63.5661 7.712 65.1528 7.712C66.7394 7.712 68.1581 8.048 69.4088 8.72C70.6594 9.37333 71.6394 10.288 72.3488 11.464C73.0581 12.64 73.4128 13.9747 73.4128 15.468C73.4128 16.9613 73.0581 18.296 72.3488 19.472C71.6394 20.648 70.6594 21.572 69.4088 22.244C68.1581 22.8973 66.7394 23.224 65.1528 23.224ZM65.1528 19.64C66.2728 19.64 67.1874 19.2667 67.8968 18.52C68.6248 17.7547 68.9888 16.7373 68.9888 15.468C68.9888 14.1987 68.6248 13.1907 67.8968 12.444C67.1874 11.6787 66.2728 11.296 65.1528 11.296C64.0328 11.296 63.1088 11.6787 62.3808 12.444C61.6528 13.1907 61.2888 14.1987 61.2888 15.468C61.2888 16.7373 61.6528 17.7547 62.3808 18.52C63.1088 19.2667 64.0328 19.64 65.1528 19.64ZM83.5004 23.224C81.9137 23.224 80.4857 22.8973 79.2164 22.244C77.9657 21.572 76.9857 20.648 76.2764 19.472C75.5671 18.296 75.2124 16.9613 75.2124 15.468C75.2124 13.9747 75.5671 12.64 76.2764 11.464C76.9857 10.288 77.9657 9.37333 79.2164 8.72C80.4857 8.048 81.9137 7.712 83.5004 7.712C85.0871 7.712 86.5057 8.048 87.7564 8.72C89.0071 9.37333 89.9871 10.288 90.6964 11.464C91.4057 12.64 91.7604 13.9747 91.7604 15.468C91.7604 16.9613 91.4057 18.296 90.6964 19.472C89.9871 20.648 89.0071 21.572 87.7564 22.244C86.5057 22.8973 85.0871 23.224 83.5004 23.224ZM83.5004 19.64C84.6204 19.64 85.5351 19.2667 86.2444 18.52C86.9724 17.7547 87.3364 16.7373 87.3364 15.468C87.3364 14.1987 86.9724 13.1907 86.2444 12.444C85.5351 11.6787 84.6204 11.296 83.5004 11.296C82.3804 11.296 81.4564 11.6787 80.7284 12.444C80.0004 13.1907 79.6364 14.1987 79.6364 15.468C79.6364 16.7373 80.0004 17.7547 80.7284 18.52C81.4564 19.2667 82.3804 19.64 83.5004 19.64ZM101.148 17.092L99.0481 19.164V23H94.6801V2.224H99.0481V13.984L105.432 7.936H110.64L104.368 14.32L111.2 23H105.908L101.148 17.092ZM113.055 7.936H117.423V23H113.055V7.936ZM115.239 5.836C114.436 5.836 113.783 5.60267 113.279 5.136C112.775 4.66933 112.523 4.09067 112.523 3.4C112.523 2.70933 112.775 2.13067 113.279 1.664C113.783 1.19733 114.436 0.963998 115.239 0.963998C116.042 0.963998 116.695 1.188 117.199 1.636C117.703 2.084 117.955 2.644 117.955 3.316C117.955 4.044 117.703 4.65067 117.199 5.136C116.695 5.60267 116.042 5.836 115.239 5.836ZM130.633 7.712C132.5 7.712 134.002 8.272 135.141 9.392C136.298 10.512 136.877 12.1733 136.877 14.376V23H132.509V15.048C132.509 13.8533 132.248 12.9667 131.725 12.388C131.202 11.7907 130.446 11.492 129.457 11.492C128.356 11.492 127.478 11.8373 126.825 12.528C126.172 13.2 125.845 14.208 125.845 15.552V23H121.477V7.936H125.649V9.7C126.228 9.06533 126.946 8.58 127.805 8.244C128.664 7.88933 129.606 7.712 130.633 7.712ZM156.54 7.936V20.48C156.54 23.2427 155.822 25.296 154.384 26.64C152.947 27.984 150.847 28.656 148.084 28.656C146.628 28.656 145.247 28.4787 143.94 28.124C142.634 27.7693 141.551 27.256 140.692 26.584L142.428 23.448C143.063 23.9707 143.866 24.3813 144.836 24.68C145.807 24.9973 146.778 25.156 147.748 25.156C149.26 25.156 150.371 24.8107 151.08 24.12C151.808 23.448 152.172 22.4213 152.172 21.04V20.396C151.034 21.6467 149.447 22.272 147.412 22.272C146.031 22.272 144.762 21.9733 143.604 21.376C142.466 20.76 141.56 19.9013 140.888 18.8C140.216 17.6987 139.88 16.4293 139.88 14.992C139.88 13.5547 140.216 12.2853 140.888 11.184C141.56 10.0827 142.466 9.23333 143.604 8.636C144.762 8.02 146.031 7.712 147.412 7.712C149.596 7.712 151.258 8.43067 152.396 9.868V7.936H156.54ZM148.28 18.688C149.438 18.688 150.38 18.352 151.108 17.68C151.855 16.9893 152.228 16.0933 152.228 14.992C152.228 13.8907 151.855 13.004 151.108 12.332C150.38 11.6413 149.438 11.296 148.28 11.296C147.123 11.296 146.171 11.6413 145.424 12.332C144.678 13.004 144.304 13.8907 144.304 14.992C144.304 16.0933 144.678 16.9893 145.424 17.68C146.171 18.352 147.123 18.688 148.28 18.688Z" fill="#F24E1E"/>
</svg>
